<svg xmlns="http://www.w3.org/2000/svg" viewBox="0 0 1500 1500">
  <defs>
    <clipPath id="c">
      <path d="M137 496h1213v941H137z"/>
    </clipPath>
  </defs>
  <g clip-path="url(#c)">
    <path fill="currentColor" d="M1350 1038C1255 1272 1030 1437 767 1437 419 1437 137 1148 137 791c0-106 25-207 70-295-17 59-26 120-26 184 0 364 295 645 658 627 206-10 390-114 511-269" fill-rule="evenodd"/>
  </g>
  <path fill="currentColor" d="M779 157c22-1 43-1 64 0C526 175 286 424 307 718c19 266 246 477 525 506C522 1226 259 1003 239 716 218 422 460 171 779 157" fill-rule="evenodd"/>
  <path fill="currentColor" d="M968 169c-70 1-142 15-215 42 89 166 207-19 314-19C931 48 816 61 743 166c80-11 157-13 225 3" fill-rule="evenodd"/>
  <path fill="currentColor" d="M897 1217c242 0 439-195 439-436S1139 346 897 346c-160 0-300 85-377 211 76-102 198-168 336-168 231 0 418 185 418 414 0 222-176 403-398 414 7 0 14 0 21 0" fill-rule="evenodd"/>
</svg>
